<svg width="42" height="40" viewBox="0 0 42 40" fill="none" xmlns="http://www.w3.org/2000/svg">
<path d="M0.162842 5.14135C0.162842 7.98073 2.45871 10.2825 5.2911 10.2825H36.0771C38.9093 10.2825 41.2053 7.98073 41.2053 5.14135C41.2053 2.30173 38.9093 0 36.0771 0H5.2911C2.45871 0 0.162842 2.30173 0.162842 5.14135ZM9.28339 20.0001C9.28339 22.8394 11.5793 25.1413 14.4116 25.1413H36.0771C38.9093 25.1413 41.2053 22.8394 41.2053 20.0001C41.2053 17.1604 38.9093 14.8587 36.0771 14.8587H14.4116C11.5793 14.8587 9.28339 17.1604 9.28339 20.0001ZM18.4039 34.8587C18.4039 37.6982 20.6998 40 23.5322 40H36.0771C38.9093 40 41.2053 37.6982 41.2053 34.8587C41.2053 32.0192 38.9093 29.7174 36.0771 29.7174H23.5322C20.6998 29.7174 18.4039 32.0192 18.4039 34.8587ZM3.58305 5.14135C3.58305 4.19564 4.34781 3.42894 5.2911 3.42894H36.0771C37.0204 3.42894 37.7851 4.19564 37.7851 5.14135C37.7851 6.08705 37.0204 6.85352 36.0771 6.85352H5.2911C4.34781 6.85352 3.58305 6.08705 3.58305 5.14135ZM12.7036 20.0001C12.7036 19.0544 13.4684 18.2876 14.4116 18.2876H36.0771C37.0204 18.2876 37.7851 19.0544 37.7851 20.0001C37.7851 20.9458 37.0204 21.7122 36.0771 21.7122H14.4116C13.4684 21.7122 12.7036 20.9458 12.7036 20.0001ZM21.8242 34.8587C21.8242 33.913 22.5889 33.1463 23.5322 33.1463H36.0771C37.0204 33.1463 37.7851 33.913 37.7851 34.8587C37.7851 35.8044 37.0204 36.5711 36.0771 36.5711H23.5322C22.5889 36.5711 21.8242 35.8044 21.8242 34.8587Z" fill="#CC2F25"/>
</svg>
