<svg width="17" height="17" viewBox="0 0 17 17" fill="none" xmlns="http://www.w3.org/2000/svg">
<path d="M8.50008 1.41675C12.4121 1.41675 15.5834 4.58806 15.5834 8.50008C15.5834 12.4121 12.4121 15.5834 8.50008 15.5834C4.58806 15.5834 1.41675 12.4121 1.41675 8.50008C1.41675 4.58806 4.58806 1.41675 8.50008 1.41675ZM10.7807 6.3536L7.61466 9.51958L6.21948 8.12445C6.01202 7.91698 5.67564 7.91698 5.46818 8.12445C5.26072 8.33192 5.26072 8.66824 5.46818 8.87571L7.23904 10.6465C7.44651 10.854 7.78282 10.854 7.99029 10.6465L11.532 7.10488C11.7394 6.89743 11.7394 6.56106 11.532 6.3536C11.3245 6.14613 10.9882 6.14613 10.7807 6.3536Z" fill="#CC2F25"/>
</svg>
