<svg width="42" height="40" viewBox="0 0 42 40" fill="none" xmlns="http://www.w3.org/2000/svg">
<path d="M0.163086 5.14135C0.163086 7.98073 2.45895 10.2825 5.29134 10.2825H36.0774C38.9096 10.2825 41.2056 7.98073 41.2056 5.14135C41.2056 2.30173 38.9096 0 36.0774 0H5.29134C2.45895 0 0.163086 2.30173 0.163086 5.14135ZM9.28364 20.0001C9.28364 22.8394 11.5795 25.1413 14.4119 25.1413H36.0774C38.9096 25.1413 41.2056 22.8394 41.2056 20.0001C41.2056 17.1604 38.9096 14.8587 36.0774 14.8587H14.4119C11.5795 14.8587 9.28364 17.1604 9.28364 20.0001ZM18.4042 34.8587C18.4042 37.6982 20.7001 40 23.5324 40H36.0774C38.9096 40 41.2056 37.6982 41.2056 34.8587C41.2056 32.0192 38.9096 29.7174 36.0774 29.7174H23.5324C20.7001 29.7174 18.4042 32.0192 18.4042 34.8587ZM3.58329 5.14135C3.58329 4.19564 4.34805 3.42894 5.29134 3.42894H36.0774C37.0206 3.42894 37.7854 4.19564 37.7854 5.14135C37.7854 6.08705 37.0206 6.85352 36.0774 6.85352H5.29134C4.34805 6.85352 3.58329 6.08705 3.58329 5.14135ZM12.7038 20.0001C12.7038 19.0544 13.4686 18.2876 14.4119 18.2876H36.0774C37.0206 18.2876 37.7854 19.0544 37.7854 20.0001C37.7854 20.9458 37.0206 21.7122 36.0774 21.7122H14.4119C13.4686 21.7122 12.7038 20.9458 12.7038 20.0001ZM21.8244 34.8587C21.8244 33.913 22.5892 33.1463 23.5324 33.1463H36.0774C37.0206 33.1463 37.7854 33.913 37.7854 34.8587C37.7854 35.8044 37.0206 36.5711 36.0774 36.5711H23.5324C22.5892 36.5711 21.8244 35.8044 21.8244 34.8587Z" fill="#CC2F25"/>
</svg>
