<svg width="739" height="156" viewBox="0 0 739 156" fill="none" xmlns="http://www.w3.org/2000/svg">
<path d="M538.876 1L538.37 0.447005L538.585 0.25H538.876V1ZM503.703 33.2256L504.21 33.7786L503.995 33.9756H503.703V33.2256ZM289.386 33.2256C289.386 35.4347 287.595 37.2256 285.386 37.2256C283.177 37.2256 281.386 35.4347 281.386 33.2256C281.386 31.0165 283.177 29.2256 285.386 29.2256C287.595 29.2256 289.386 31.0165 289.386 33.2256ZM739 1.75H538.876V0.25H739V1.75ZM539.383 1.553L504.21 33.7786L503.196 32.6726L538.37 0.447005L539.383 1.553ZM503.703 33.9756H285.386V32.4756H503.703V33.9756Z" fill="#CC2F25"/>
<path d="M414.735 61.7683L414.358 61.12L414.533 61.0183H414.735V61.7683ZM357.743 94.9147L358.12 95.563L357.946 95.6647H357.743V94.9147ZM8 94.9147C8 97.1238 6.20917 98.9147 4 98.9147C1.79089 98.9147 0 97.1238 0 94.9147C0 92.7055 1.79089 90.9147 4 90.9147C6.20917 90.9147 8 92.7055 8 94.9147ZM739 62.5183H414.735V61.0183H739V62.5183ZM415.112 62.4166L358.12 95.563L357.366 94.2663L414.358 61.12L415.112 62.4166ZM357.743 95.6647H4V94.1647H357.743V95.6647Z" fill="#CC2F25"/>
<path d="M588.105 94.9146L587.519 94.446L587.744 94.1646H588.105V94.9146ZM561.584 128.061L562.169 128.529L561.944 128.811H561.584V128.061ZM400.97 128.061C400.97 130.27 399.179 132.061 396.97 132.061C394.761 132.061 392.97 130.27 392.97 128.061C392.97 125.852 394.761 124.061 396.97 124.061C399.179 124.061 400.97 125.852 400.97 128.061ZM739 95.6646H588.105V94.1646H739V95.6646ZM588.69 95.3831L562.169 128.529L560.998 127.592L587.519 94.446L588.69 95.3831ZM561.584 128.811H396.97V127.311H561.584V128.811Z" fill="#CC2F25"/>
<path d="M613.223 152C613.223 154.209 611.432 156 609.223 156C607.014 156 605.223 154.209 605.223 152C605.223 149.791 607.014 148 609.223 148C611.432 148 613.223 149.791 613.223 152ZM739 152.75H609.223V151.25H739V152.75Z" fill="#CC2F25"/>
<path d="M613.223 76.5C613.223 78.7091 611.432 80.5 609.223 80.5C607.014 80.5 605.223 78.7091 605.223 76.5C605.223 74.2909 607.014 72.5 609.223 72.5C611.432 72.5 613.223 74.2909 613.223 76.5ZM739 77.25H609.223V75.75H739V77.25Z" fill="#CC2F25"/>
<path d="M580.475 28.6221C580.475 30.8312 578.684 32.6221 576.475 32.6221C574.266 32.6221 572.475 30.8312 572.475 28.6221C572.475 26.4129 574.266 24.6221 576.475 24.6221C578.684 24.6221 580.475 26.4129 580.475 28.6221ZM739 29.3721H576.475V27.8721H739V29.3721Z" fill="#CC2F25"/>
</svg>
