<svg width="691" height="162" viewBox="0 0 691 162" fill="none" xmlns="http://www.w3.org/2000/svg">
<path d="M253.572 161.104L254.064 161.67L253.853 161.854H253.572V161.104ZM298.14 122.358L297.648 121.792L297.859 121.608H298.14V122.358ZM570.764 122.358C570.764 120.149 572.555 118.358 574.764 118.358C576.973 118.358 578.764 120.149 578.764 122.358C578.764 124.568 576.973 126.358 574.764 126.358C572.555 126.358 570.764 124.568 570.764 122.358ZM0 160.354H253.572V161.854H0V160.354ZM253.08 160.538L297.648 121.792L298.632 122.924L254.064 161.67L253.08 160.538ZM298.14 121.608H574.764V123.108H298.14V121.608Z" fill="#CC2F25"/>
<path d="M303.088 93.5078L303.451 94.1645L303.281 94.2578H303.088V93.5078ZM356.358 64.1099L355.996 63.4533L356.165 63.3599H356.358V64.1099ZM683 64.1099C683 61.9008 684.791 60.1099 687 60.1099C689.209 60.1099 691 61.9008 691 64.1099C691 66.319 689.209 68.1099 687 68.1099C684.791 68.1099 683 66.319 683 64.1099ZM0 92.7578H303.088V94.2578H0V92.7578ZM302.726 92.8512L355.996 63.4533L356.721 64.7665L303.451 94.1645L302.726 92.8512ZM356.358 63.3599H687V64.8599H356.358V63.3599Z" fill="#CC2F25"/>
<path d="M141.041 54.6296L141.614 55.1131L141.39 55.3796H141.041V54.6296ZM165.83 25.2317L165.257 24.7482L165.481 24.4817H165.83V25.2317ZM315.693 25.2317C315.693 23.0226 317.484 21.2317 319.693 21.2317C321.902 21.2317 323.693 23.0226 323.693 25.2317C323.693 27.4409 321.902 29.2317 319.693 29.2317C317.484 29.2317 315.693 27.4409 315.693 25.2317ZM0 53.8796H141.041V55.3796H0V53.8796ZM140.468 54.1462L165.257 24.7482L166.403 25.7152L141.614 55.1131L140.468 54.1462ZM165.83 24.4817H319.693V25.9817H165.83V24.4817Z" fill="#CC2F25"/>
<path d="M117.302 4C117.302 1.79086 119.093 0 121.302 0C123.511 0 125.302 1.79086 125.302 4C125.302 6.20914 123.511 8 121.302 8C119.093 8 117.302 6.20914 117.302 4ZM0 3.25H121.302V4.75H0V3.25Z" fill="#CC2F25"/>
<path d="M117.302 70.9619C117.302 68.7528 119.093 66.9619 121.302 66.9619C123.511 66.9619 125.302 68.7528 125.302 70.9619C125.302 73.1711 123.511 74.9619 121.302 74.9619C119.093 74.9619 117.302 73.1711 117.302 70.9619ZM0 70.2119H121.302V71.7119H0V70.2119Z" fill="#CC2F25"/>
<path d="M147.911 121.182C147.911 118.973 149.702 117.182 151.911 117.182C154.12 117.182 155.911 118.973 155.911 121.182C155.911 123.391 154.12 125.182 151.911 125.182C149.702 125.182 147.911 123.391 147.911 121.182ZM0 120.432H151.911V121.932H0V120.432Z" fill="#CC2F25"/>
</svg>
